<svg width="190" height="46" viewBox="0 0 190 46" fill="none" xmlns="http://www.w3.org/2000/svg">
<g clip-path="url(#clip0_1812_39231)">
<path d="M37.4815 0H8.51852C3.81387 0 0 3.81387 0 8.51852V37.4815C0 42.186 3.81387 46 8.51852 46H37.4815C42.186 46 46 42.186 46 37.4815V8.51852C46 3.81387 42.186 0 37.4815 0Z" fill="#CC0000"/>
<path d="M26.163 25.1489C25.108 25.0151 24.0928 24.661 23.1835 24.1096C22.2741 23.558 21.4908 22.8216 20.8846 21.9478C20.2784 21.074 19.8627 20.0825 19.6644 19.0377C19.4661 17.9928 19.4897 16.9179 19.7337 15.8828C19.4526 15.9297 19.1758 15.9893 18.9032 16.0596C18.0183 16.2865 17.1684 16.6333 16.3774 17.0903C14.8425 17.9792 13.5672 19.2546 12.6783 20.7895C11.7938 22.325 11.3281 24.0657 11.3281 25.8378C11.3281 27.6097 11.7938 29.3506 12.6783 30.8861C13.5672 32.4209 14.8425 33.6964 16.3774 34.5853C17.1683 35.0429 18.0182 35.3905 18.9032 35.6181C20.5546 36.0438 22.2869 36.0445 23.9386 35.6198C25.5904 35.1952 27.1077 34.3591 28.3491 33.1895C29.5905 32.0201 30.5154 30.5554 31.0376 28.9319C31.5599 27.3083 31.6626 25.5791 31.3359 23.9052C29.8166 24.9265 27.9798 25.3652 26.163 25.1404V25.1489Z" fill="white"/>
<path d="M34.6767 17.6355C34.6761 15.6272 33.8781 13.7013 32.4581 12.2812C31.0378 10.8611 29.112 10.0631 27.1038 10.0625C26.789 10.0618 26.4747 10.0817 26.1625 10.1221C24.6317 10.3142 23.1959 10.9688 22.047 11.9985C20.8982 13.0283 20.0909 14.3842 19.7332 15.8849C22.0512 15.4912 24.4341 15.9182 26.4713 17.0924C28.0059 17.9817 29.2811 19.257 30.1704 20.7916C30.7307 21.7606 31.1245 22.8166 31.3353 23.9157C32.3648 23.2234 33.2079 22.2883 33.7906 21.193C34.3733 20.0978 34.6776 18.8761 34.6767 17.6355Z" fill="white"/>
</g>
<path d="M60.67 14.561L61.153 11.985L63.016 2.44H66.673L68.628 11.916L69.134 14.561L69.64 12.031L71.848 2.44H75.367L70.721 19H67.409L65.408 9.317L64.833 6.12L64.235 9.317L62.234 19H59.037L54.345 2.44H58.002L60.21 11.916L60.67 14.561ZM80.9637 8.903H88.9907V11.778H80.9637V16.033H90.1177V19H77.5827V2.44H89.7037V5.384H80.9637V8.903ZM105.229 4.211C105.735 4.924 105.988 5.752 105.988 6.741C105.988 7.753 105.735 8.558 105.229 9.179C104.953 9.524 104.516 9.846 103.964 10.122C104.815 10.421 105.436 10.904 105.896 11.571C106.31 12.238 106.517 13.043 106.517 14.009C106.517 14.975 106.287 15.872 105.781 16.631C105.459 17.16 105.068 17.597 104.608 17.942C104.079 18.356 103.458 18.632 102.722 18.77C102.009 18.931 101.204 19 100.376 19H92.8775V2.44H100.905C102.952 2.486 104.378 3.061 105.229 4.211ZM100.238 8.972C100.974 8.972 101.549 8.834 102.009 8.558C102.469 8.282 102.676 7.799 102.676 7.109C102.676 6.327 102.377 5.821 101.779 5.591C101.273 5.407 100.606 5.315 99.8005 5.315H96.1665V8.972H100.238ZM100.238 16.125C100.974 16.125 101.526 16.033 101.94 15.826C102.653 15.481 103.044 14.791 103.044 13.756C103.044 12.905 102.676 12.307 101.963 11.985C101.572 11.824 101.02 11.732 100.284 11.709H96.1665V16.125H100.238ZM118.316 13.894C118.408 14.653 118.638 15.205 118.937 15.596C119.489 16.263 120.455 16.608 121.812 16.608C122.64 16.608 123.307 16.516 123.813 16.332C124.779 15.987 125.262 15.343 125.262 14.423C125.262 13.871 125.032 13.457 124.549 13.158C124.066 12.859 123.307 12.606 122.272 12.376L120.524 11.985C118.822 11.594 117.626 11.18 116.959 10.72C115.855 9.938 115.28 8.765 115.28 7.132C115.28 5.637 115.832 4.418 116.913 3.429C117.971 2.463 119.558 1.957 121.651 1.957C123.399 1.957 124.894 2.417 126.113 3.337C127.355 4.28 127.999 5.614 128.045 7.385H124.733C124.664 6.373 124.227 5.66 123.422 5.246C122.893 4.97 122.203 4.832 121.421 4.832C120.524 4.832 119.811 5.016 119.282 5.384C118.753 5.729 118.477 6.235 118.477 6.879C118.477 7.477 118.753 7.914 119.282 8.213C119.604 8.397 120.317 8.627 121.421 8.903L124.273 9.57C125.538 9.892 126.481 10.283 127.102 10.789C128.091 11.548 128.597 12.698 128.597 14.17C128.597 15.665 128.022 16.93 126.872 17.919C125.699 18.931 124.066 19.437 121.95 19.437C119.811 19.437 118.109 18.931 116.867 17.942C115.625 16.976 115.027 15.619 115.027 13.894H118.316ZM142.419 11.824C141.43 12.652 140.004 13.043 138.187 13.043H134.668V19H131.241V2.44H138.44C140.096 2.44 141.43 2.877 142.419 3.728C143.408 4.579 143.891 5.913 143.891 7.684C143.891 9.639 143.408 11.019 142.419 11.824ZM139.797 5.867C139.337 5.499 138.716 5.315 137.888 5.315H134.668V10.191H137.888C138.716 10.191 139.337 9.984 139.797 9.593C140.257 9.202 140.464 8.581 140.464 7.707C140.464 6.856 140.257 6.235 139.797 5.867ZM157.522 19H153.773L152.715 15.596H146.597L145.47 19H141.836L147.747 2.44H151.657L157.522 19ZM149.679 6.235L147.54 12.744H151.749L149.679 6.235ZM161.217 4.165C162.574 2.808 164.276 2.141 166.369 2.141C169.152 2.141 171.176 3.038 172.464 4.878C173.177 5.89 173.568 6.925 173.614 7.96H170.164C169.934 7.155 169.635 6.557 169.29 6.166C168.669 5.453 167.726 5.085 166.484 5.085C165.242 5.085 164.253 5.591 163.517 6.603C162.781 7.615 162.436 9.064 162.436 10.904C162.436 12.767 162.804 14.17 163.586 15.09C164.345 16.01 165.334 16.47 166.507 16.47C167.726 16.47 168.646 16.079 169.29 15.274C169.635 14.86 169.911 14.216 170.164 13.365H173.591C173.269 15.159 172.51 16.631 171.291 17.758C170.049 18.908 168.462 19.46 166.553 19.46C164.161 19.46 162.298 18.701 160.941 17.16C159.584 15.642 158.894 13.526 158.894 10.858C158.894 7.983 159.676 5.729 161.217 4.165ZM179.702 8.903H187.729V11.778H179.702V16.033H188.856V19H176.321V2.44H188.442V5.384H179.702V8.903Z" fill="#191919"/>
<path d="M59.446 30.004C59.894 30.004 60.3 30.06 60.664 30.186C61.028 30.312 61.336 30.508 61.602 30.746C61.868 30.998 62.064 31.306 62.204 31.656C62.344 32.006 62.414 32.412 62.414 32.86C62.414 33.308 62.344 33.714 62.204 34.064C62.064 34.414 61.868 34.722 61.602 34.96C61.336 35.212 61.028 35.394 60.664 35.52C60.3 35.646 59.894 35.716 59.446 35.716H55.96V40H55.008V30.004H59.446ZM59.236 34.904C59.894 34.904 60.44 34.736 60.846 34.4C61.252 34.064 61.462 33.546 61.462 32.86C61.462 32.174 61.252 31.656 60.846 31.32C60.44 30.984 59.894 30.816 59.236 30.816H55.96V34.904H59.236ZM65.6884 40.196C65.3524 40.196 65.0444 40.154 64.7504 40.084C64.4564 40 64.1904 39.874 63.9804 39.692C63.7564 39.524 63.5884 39.3 63.4624 39.034C63.3364 38.768 63.2664 38.46 63.2664 38.096C63.2664 37.592 63.3784 37.2 63.6024 36.906C63.8264 36.626 64.1204 36.416 64.4984 36.262C64.8624 36.108 65.2824 36.01 65.7444 35.94L67.1444 35.772C67.3264 35.758 67.4804 35.73 67.6344 35.702C67.7744 35.674 67.8864 35.618 67.9844 35.548C68.0824 35.478 68.1524 35.394 68.2084 35.268C68.2504 35.142 68.2784 34.988 68.2784 34.792C68.2784 34.498 68.2364 34.246 68.1384 34.05C68.0404 33.868 67.9004 33.714 67.7324 33.602C67.5504 33.49 67.3544 33.406 67.1304 33.364C66.8924 33.322 66.6544 33.308 66.3884 33.308C65.8284 33.308 65.3664 33.434 65.0164 33.7C64.6664 33.966 64.4704 34.4 64.4564 34.988H63.5744C63.6304 34.134 63.9244 33.518 64.4564 33.14C64.9744 32.762 65.6604 32.566 66.5004 32.566C66.8224 32.566 67.1304 32.594 67.4524 32.65C67.7744 32.72 68.0544 32.832 68.3064 33C68.5584 33.168 68.7684 33.406 68.9224 33.7C69.0764 34.008 69.1604 34.4 69.1604 34.89V38.726C69.1604 39.076 69.3284 39.258 69.6784 39.258C69.7904 39.258 69.8884 39.244 69.9584 39.202V39.944L69.6924 39.986C69.6084 40 69.5104 40 69.3844 40C69.1604 40 68.9784 39.972 68.8524 39.902C68.7124 39.846 68.6004 39.762 68.5304 39.65C68.4604 39.538 68.4044 39.398 68.3904 39.244C68.3624 39.09 68.3484 38.922 68.3484 38.74H68.3204C68.1664 38.978 67.9984 39.174 67.8444 39.356C67.6764 39.538 67.4944 39.692 67.2984 39.818C67.0884 39.944 66.8644 40.028 66.5984 40.098C66.3324 40.168 66.0384 40.196 65.6884 40.196ZM65.7584 39.468C66.0944 39.468 66.4164 39.412 66.7244 39.314C67.0324 39.216 67.2984 39.062 67.5364 38.866C67.7604 38.67 67.9424 38.432 68.0824 38.152C68.2084 37.872 68.2784 37.55 68.2784 37.2V36.052H68.2504C68.1944 36.15 68.0824 36.234 67.9284 36.276C67.7744 36.318 67.6344 36.36 67.5084 36.374C67.1304 36.444 66.7524 36.5 66.3604 36.542C65.9544 36.598 65.5904 36.682 65.2684 36.78C64.9464 36.878 64.6804 37.032 64.4704 37.228C64.2604 37.424 64.1484 37.69 64.1484 38.04C64.1484 38.264 64.1904 38.46 64.2884 38.628C64.3724 38.81 64.4844 38.95 64.6384 39.076C64.7924 39.202 64.9604 39.3 65.1564 39.37C65.3384 39.44 65.5484 39.468 65.7584 39.468ZM73.4521 40.196C72.4861 40.196 71.7721 39.972 71.2821 39.524C70.7921 39.09 70.5121 38.488 70.4701 37.732H71.3521C71.3941 37.998 71.4501 38.236 71.5481 38.446C71.6461 38.656 71.7721 38.838 71.9401 38.992C72.1081 39.146 72.3181 39.258 72.5701 39.328C72.8081 39.412 73.1161 39.454 73.4661 39.454C73.8721 39.454 74.1941 39.412 74.4461 39.314C74.6981 39.216 74.8941 39.09 75.0481 38.936C75.1881 38.782 75.2861 38.614 75.3421 38.432C75.3981 38.25 75.4261 38.054 75.4261 37.872C75.4261 37.508 75.3141 37.2 75.0761 36.948C74.8381 36.696 74.4321 36.57 73.8861 36.57H72.6821V35.898H73.6761C74.0961 35.898 74.4601 35.786 74.7541 35.562C75.0481 35.338 75.2021 35.016 75.2021 34.582C75.2021 34.456 75.1881 34.316 75.1461 34.162C75.1041 34.008 75.0061 33.868 74.8801 33.742C74.7541 33.616 74.5721 33.518 74.3341 33.434C74.0961 33.364 73.8021 33.322 73.4241 33.322C72.7661 33.322 72.2901 33.462 71.9961 33.756C71.7021 34.05 71.5201 34.428 71.4781 34.876H70.6101C70.6521 34.442 70.7501 34.064 70.9181 33.77C71.0861 33.476 71.2961 33.252 71.5481 33.07C71.8001 32.888 72.0941 32.762 72.4161 32.692C72.7381 32.622 73.0881 32.58 73.4381 32.58C73.8161 32.58 74.1661 32.608 74.4881 32.678C74.8101 32.748 75.0901 32.86 75.3281 33.014C75.5661 33.168 75.7621 33.378 75.9021 33.616C76.0421 33.868 76.1121 34.176 76.1121 34.526C76.1121 34.736 76.0841 34.932 76.0141 35.114C75.9441 35.296 75.8601 35.45 75.7621 35.59C75.6501 35.73 75.5241 35.842 75.3841 35.94C75.2441 36.038 75.1041 36.094 74.9501 36.122V36.15C75.1181 36.178 75.2861 36.234 75.4541 36.304C75.6221 36.374 75.7761 36.486 75.9021 36.612C76.0281 36.752 76.1401 36.92 76.2241 37.116C76.3081 37.326 76.3501 37.564 76.3501 37.844C76.3501 38.236 76.2661 38.572 76.1121 38.866C75.9581 39.16 75.7481 39.412 75.4821 39.608C75.2161 39.804 74.9081 39.944 74.5581 40.056C74.2081 40.154 73.8301 40.196 73.4521 40.196ZM78.525 34.148H78.553C78.763 33.644 79.099 33.252 79.561 32.972C80.023 32.706 80.541 32.566 81.129 32.566C81.675 32.566 82.165 32.664 82.571 32.874C82.977 33.084 83.313 33.35 83.579 33.7C83.845 34.05 84.055 34.456 84.181 34.918C84.307 35.38 84.377 35.87 84.377 36.388C84.377 36.906 84.307 37.396 84.181 37.858C84.055 38.32 83.845 38.712 83.579 39.062C83.313 39.412 82.977 39.692 82.571 39.888C82.165 40.098 81.675 40.196 81.129 40.196C80.863 40.196 80.597 40.168 80.345 40.098C80.079 40.028 79.841 39.93 79.617 39.804C79.393 39.678 79.197 39.51 79.029 39.314C78.847 39.118 78.721 38.894 78.623 38.628H78.595V42.66H77.713V32.776H78.525V34.148ZM81.129 39.468C81.549 39.468 81.913 39.37 82.207 39.188C82.501 39.006 82.753 38.782 82.949 38.488C83.131 38.194 83.271 37.872 83.369 37.494C83.453 37.13 83.495 36.766 83.495 36.388C83.495 36.01 83.453 35.646 83.369 35.268C83.271 34.904 83.131 34.582 82.949 34.288C82.753 33.994 82.501 33.756 82.207 33.574C81.913 33.392 81.549 33.308 81.129 33.308C80.639 33.308 80.233 33.392 79.911 33.56C79.589 33.728 79.323 33.952 79.127 34.232C78.931 34.512 78.791 34.834 78.721 35.212C78.637 35.59 78.595 35.982 78.595 36.388C78.595 36.766 78.637 37.13 78.735 37.494C78.819 37.872 78.959 38.194 79.169 38.488C79.365 38.782 79.631 39.006 79.953 39.188C80.275 39.37 80.667 39.468 81.129 39.468ZM87.7821 40.196C87.4461 40.196 87.1381 40.154 86.8441 40.084C86.5501 40 86.2841 39.874 86.0741 39.692C85.8501 39.524 85.6821 39.3 85.5561 39.034C85.4301 38.768 85.3601 38.46 85.3601 38.096C85.3601 37.592 85.4721 37.2 85.6961 36.906C85.9201 36.626 86.2141 36.416 86.5921 36.262C86.9561 36.108 87.3761 36.01 87.8381 35.94L89.2381 35.772C89.4201 35.758 89.5741 35.73 89.7281 35.702C89.8681 35.674 89.9801 35.618 90.0781 35.548C90.1761 35.478 90.2461 35.394 90.3021 35.268C90.3441 35.142 90.3721 34.988 90.3721 34.792C90.3721 34.498 90.3301 34.246 90.2321 34.05C90.1341 33.868 89.9941 33.714 89.8261 33.602C89.6441 33.49 89.4481 33.406 89.2241 33.364C88.9861 33.322 88.7481 33.308 88.4821 33.308C87.9221 33.308 87.4601 33.434 87.1101 33.7C86.7601 33.966 86.5641 34.4 86.5501 34.988H85.6681C85.7241 34.134 86.0181 33.518 86.5501 33.14C87.0681 32.762 87.7541 32.566 88.5941 32.566C88.9161 32.566 89.2241 32.594 89.5461 32.65C89.8681 32.72 90.1481 32.832 90.4001 33C90.6521 33.168 90.8621 33.406 91.0161 33.7C91.1701 34.008 91.2541 34.4 91.2541 34.89V38.726C91.2541 39.076 91.4221 39.258 91.7721 39.258C91.8841 39.258 91.9821 39.244 92.0521 39.202V39.944L91.7861 39.986C91.7021 40 91.6041 40 91.4781 40C91.2541 40 91.0721 39.972 90.9461 39.902C90.8061 39.846 90.6941 39.762 90.6241 39.65C90.5541 39.538 90.4981 39.398 90.4841 39.244C90.4561 39.09 90.4421 38.922 90.4421 38.74H90.4141C90.2601 38.978 90.0921 39.174 89.9381 39.356C89.7701 39.538 89.5881 39.692 89.3921 39.818C89.1821 39.944 88.9581 40.028 88.6921 40.098C88.4261 40.168 88.1321 40.196 87.7821 40.196ZM87.8521 39.468C88.1881 39.468 88.5101 39.412 88.8181 39.314C89.1261 39.216 89.3921 39.062 89.6301 38.866C89.8541 38.67 90.0361 38.432 90.1761 38.152C90.3021 37.872 90.3721 37.55 90.3721 37.2V36.052H90.3441C90.2881 36.15 90.1761 36.234 90.0221 36.276C89.8681 36.318 89.7281 36.36 89.6021 36.374C89.2241 36.444 88.8461 36.5 88.4541 36.542C88.0481 36.598 87.6841 36.682 87.3621 36.78C87.0401 36.878 86.7741 37.032 86.5641 37.228C86.3541 37.424 86.2421 37.69 86.2421 38.04C86.2421 38.264 86.2841 38.46 86.3821 38.628C86.4661 38.81 86.5781 38.95 86.7321 39.076C86.8861 39.202 87.0541 39.3 87.2501 39.37C87.4321 39.44 87.6421 39.468 87.8521 39.468ZM96.1339 40.196C95.4759 40.196 94.9299 40.07 94.4959 39.832C94.0619 39.594 93.7259 39.272 93.4739 38.866C93.2219 38.46 93.0399 37.998 92.9419 37.48C92.8439 36.962 92.7879 36.416 92.7879 35.856C92.7879 35.506 92.8019 35.142 92.8299 34.764C92.8579 34.386 92.9139 34.022 92.9839 33.644C93.0539 33.28 93.1379 32.93 93.2499 32.594C93.3619 32.258 93.5019 31.95 93.6839 31.684C94.0059 31.18 94.3979 30.816 94.8599 30.606C95.3219 30.396 95.8959 30.256 96.5819 30.214L97.2539 30.172C97.6319 30.158 97.8839 30.116 98.0099 30.06C98.1359 30.004 98.2339 29.92 98.2899 29.794H99.2699C99.1999 30.228 99.0039 30.508 98.7099 30.662C98.4019 30.816 97.9399 30.914 97.3239 30.956L96.2599 31.026C95.4339 31.082 94.8179 31.376 94.3839 31.908C93.9499 32.44 93.6559 33.266 93.5019 34.386H93.5439C93.7819 33.896 94.1459 33.504 94.6219 33.21C95.0979 32.916 95.6299 32.776 96.2179 32.776C96.7079 32.776 97.1419 32.86 97.5479 33.028C97.9399 33.196 98.2759 33.434 98.5699 33.756C98.8639 34.078 99.0879 34.456 99.2419 34.918C99.3959 35.38 99.4799 35.884 99.4799 36.458C99.4799 37.018 99.3959 37.522 99.2419 37.984C99.0879 38.446 98.8639 38.852 98.5699 39.174C98.2759 39.496 97.9119 39.748 97.5059 39.93C97.0999 40.112 96.6379 40.196 96.1339 40.196ZM96.1339 39.468C96.4839 39.468 96.8199 39.398 97.1279 39.244C97.4219 39.104 97.6879 38.894 97.9119 38.628C98.1219 38.362 98.2899 38.054 98.4159 37.676C98.5419 37.312 98.5979 36.906 98.5979 36.458C98.5979 36.024 98.5419 35.618 98.4159 35.254C98.2899 34.89 98.1219 34.582 97.9119 34.316C97.6879 34.064 97.4359 33.868 97.1419 33.714C96.8479 33.574 96.5259 33.504 96.1759 33.504C95.7979 33.504 95.4619 33.574 95.1539 33.714C94.8459 33.854 94.5799 34.05 94.3699 34.302C94.1459 34.568 93.9779 34.876 93.8519 35.24C93.7259 35.604 93.6699 36.01 93.6699 36.458C93.6699 36.906 93.7259 37.312 93.8519 37.676C93.9779 38.054 94.1459 38.362 94.3699 38.628C94.5799 38.894 94.8459 39.104 95.1539 39.244C95.4479 39.398 95.7839 39.468 96.1339 39.468ZM103.843 40.196C103.297 40.196 102.807 40.098 102.387 39.888C101.953 39.692 101.603 39.426 101.309 39.076C101.015 38.726 100.805 38.32 100.651 37.858C100.497 37.396 100.427 36.906 100.427 36.388C100.427 35.87 100.497 35.38 100.651 34.918C100.805 34.456 101.015 34.05 101.309 33.7C101.603 33.35 101.953 33.084 102.387 32.874C102.807 32.664 103.297 32.566 103.843 32.566C104.389 32.566 104.879 32.664 105.313 32.874C105.733 33.084 106.083 33.35 106.377 33.7C106.671 34.05 106.881 34.456 107.035 34.918C107.189 35.38 107.259 35.87 107.259 36.388C107.259 36.906 107.189 37.396 107.035 37.858C106.881 38.32 106.671 38.726 106.377 39.076C106.083 39.426 105.733 39.692 105.313 39.888C104.879 40.098 104.389 40.196 103.843 40.196ZM103.843 39.468C104.263 39.468 104.627 39.384 104.949 39.202C105.271 39.02 105.537 38.796 105.747 38.502C105.957 38.208 106.111 37.886 106.223 37.508C106.321 37.144 106.377 36.766 106.377 36.388C106.377 36.01 106.321 35.632 106.223 35.254C106.111 34.89 105.957 34.568 105.747 34.274C105.537 33.98 105.271 33.756 104.949 33.574C104.627 33.392 104.263 33.308 103.843 33.308C103.423 33.308 103.059 33.392 102.737 33.574C102.415 33.756 102.163 33.98 101.953 34.274C101.743 34.568 101.575 34.89 101.477 35.254C101.365 35.632 101.309 36.01 101.309 36.388C101.309 36.766 101.365 37.144 101.477 37.508C101.575 37.886 101.743 38.208 101.953 38.502C102.163 38.796 102.415 39.02 102.737 39.202C103.059 39.384 103.423 39.468 103.843 39.468ZM107.716 32.776H113.946V33.518H111.272V40H110.39V33.518H107.716V32.776ZM115.66 36.486L119.664 32.776H120.84L117.774 35.604L121.022 40H119.916L117.13 36.206L115.66 37.564V40H114.778V32.776H115.66V36.486ZM123.78 40.196C123.444 40.196 123.136 40.154 122.842 40.084C122.548 40 122.282 39.874 122.072 39.692C121.848 39.524 121.68 39.3 121.554 39.034C121.428 38.768 121.358 38.46 121.358 38.096C121.358 37.592 121.47 37.2 121.694 36.906C121.918 36.626 122.212 36.416 122.59 36.262C122.954 36.108 123.374 36.01 123.836 35.94L125.236 35.772C125.418 35.758 125.572 35.73 125.726 35.702C125.866 35.674 125.978 35.618 126.076 35.548C126.174 35.478 126.244 35.394 126.3 35.268C126.342 35.142 126.37 34.988 126.37 34.792C126.37 34.498 126.328 34.246 126.23 34.05C126.132 33.868 125.992 33.714 125.824 33.602C125.642 33.49 125.446 33.406 125.222 33.364C124.984 33.322 124.746 33.308 124.48 33.308C123.92 33.308 123.458 33.434 123.108 33.7C122.758 33.966 122.562 34.4 122.548 34.988H121.666C121.722 34.134 122.016 33.518 122.548 33.14C123.066 32.762 123.752 32.566 124.592 32.566C124.914 32.566 125.222 32.594 125.544 32.65C125.866 32.72 126.146 32.832 126.398 33C126.65 33.168 126.86 33.406 127.014 33.7C127.168 34.008 127.252 34.4 127.252 34.89V38.726C127.252 39.076 127.42 39.258 127.77 39.258C127.882 39.258 127.98 39.244 128.05 39.202V39.944L127.784 39.986C127.7 40 127.602 40 127.476 40C127.252 40 127.07 39.972 126.944 39.902C126.804 39.846 126.692 39.762 126.622 39.65C126.552 39.538 126.496 39.398 126.482 39.244C126.454 39.09 126.44 38.922 126.44 38.74H126.412C126.258 38.978 126.09 39.174 125.936 39.356C125.768 39.538 125.586 39.692 125.39 39.818C125.18 39.944 124.956 40.028 124.69 40.098C124.424 40.168 124.13 40.196 123.78 40.196ZM123.85 39.468C124.186 39.468 124.508 39.412 124.816 39.314C125.124 39.216 125.39 39.062 125.628 38.866C125.852 38.67 126.034 38.432 126.174 38.152C126.3 37.872 126.37 37.55 126.37 37.2V36.052H126.342C126.286 36.15 126.174 36.234 126.02 36.276C125.866 36.318 125.726 36.36 125.6 36.374C125.222 36.444 124.844 36.5 124.452 36.542C124.046 36.598 123.682 36.682 123.36 36.78C123.038 36.878 122.772 37.032 122.562 37.228C122.352 37.424 122.24 37.69 122.24 38.04C122.24 38.264 122.282 38.46 122.38 38.628C122.464 38.81 122.576 38.95 122.73 39.076C122.884 39.202 123.052 39.3 123.248 39.37C123.43 39.44 123.64 39.468 123.85 39.468ZM135.958 40.196C135.412 40.196 134.922 40.098 134.502 39.888C134.068 39.692 133.718 39.426 133.424 39.076C133.13 38.726 132.92 38.32 132.766 37.858C132.612 37.396 132.542 36.906 132.542 36.388C132.542 35.87 132.612 35.38 132.766 34.918C132.92 34.456 133.13 34.05 133.424 33.7C133.718 33.35 134.068 33.084 134.502 32.874C134.922 32.664 135.412 32.566 135.958 32.566C136.728 32.566 137.386 32.776 137.932 33.182C138.464 33.588 138.786 34.218 138.884 35.044H138.002C137.876 34.498 137.652 34.078 137.33 33.77C137.008 33.462 136.546 33.308 135.958 33.308C135.538 33.308 135.174 33.392 134.852 33.574C134.53 33.756 134.278 33.98 134.068 34.274C133.858 34.568 133.69 34.89 133.592 35.254C133.48 35.632 133.424 36.01 133.424 36.388C133.424 36.766 133.48 37.144 133.592 37.508C133.69 37.886 133.858 38.208 134.068 38.502C134.278 38.796 134.53 39.02 134.852 39.202C135.174 39.384 135.538 39.468 135.958 39.468C136.224 39.468 136.49 39.412 136.728 39.314C136.966 39.216 137.19 39.062 137.372 38.88C137.554 38.698 137.708 38.488 137.834 38.236C137.96 37.984 138.03 37.704 138.058 37.41H138.94C138.814 38.292 138.492 38.964 137.974 39.454C137.456 39.944 136.784 40.196 135.958 40.196ZM142.196 40.196C141.86 40.196 141.552 40.154 141.258 40.084C140.964 40 140.698 39.874 140.488 39.692C140.264 39.524 140.096 39.3 139.97 39.034C139.844 38.768 139.774 38.46 139.774 38.096C139.774 37.592 139.886 37.2 140.11 36.906C140.334 36.626 140.628 36.416 141.006 36.262C141.37 36.108 141.79 36.01 142.252 35.94L143.652 35.772C143.834 35.758 143.988 35.73 144.142 35.702C144.282 35.674 144.394 35.618 144.492 35.548C144.59 35.478 144.66 35.394 144.716 35.268C144.758 35.142 144.786 34.988 144.786 34.792C144.786 34.498 144.744 34.246 144.646 34.05C144.548 33.868 144.408 33.714 144.24 33.602C144.058 33.49 143.862 33.406 143.638 33.364C143.4 33.322 143.162 33.308 142.896 33.308C142.336 33.308 141.874 33.434 141.524 33.7C141.174 33.966 140.978 34.4 140.964 34.988H140.082C140.138 34.134 140.432 33.518 140.964 33.14C141.482 32.762 142.168 32.566 143.008 32.566C143.33 32.566 143.638 32.594 143.96 32.65C144.282 32.72 144.562 32.832 144.814 33C145.066 33.168 145.276 33.406 145.43 33.7C145.584 34.008 145.668 34.4 145.668 34.89V38.726C145.668 39.076 145.836 39.258 146.186 39.258C146.298 39.258 146.396 39.244 146.466 39.202V39.944L146.2 39.986C146.116 40 146.018 40 145.892 40C145.668 40 145.486 39.972 145.36 39.902C145.22 39.846 145.108 39.762 145.038 39.65C144.968 39.538 144.912 39.398 144.898 39.244C144.87 39.09 144.856 38.922 144.856 38.74H144.828C144.674 38.978 144.506 39.174 144.352 39.356C144.184 39.538 144.002 39.692 143.806 39.818C143.596 39.944 143.372 40.028 143.106 40.098C142.84 40.168 142.546 40.196 142.196 40.196ZM142.266 39.468C142.602 39.468 142.924 39.412 143.232 39.314C143.54 39.216 143.806 39.062 144.044 38.866C144.268 38.67 144.45 38.432 144.59 38.152C144.716 37.872 144.786 37.55 144.786 37.2V36.052H144.758C144.702 36.15 144.59 36.234 144.436 36.276C144.282 36.318 144.142 36.36 144.016 36.374C143.638 36.444 143.26 36.5 142.868 36.542C142.462 36.598 142.098 36.682 141.776 36.78C141.454 36.878 141.188 37.032 140.978 37.228C140.768 37.424 140.656 37.69 140.656 38.04C140.656 38.264 140.698 38.46 140.796 38.628C140.88 38.81 140.992 38.95 141.146 39.076C141.3 39.202 141.468 39.3 141.664 39.37C141.846 39.44 142.056 39.468 142.266 39.468ZM150.366 31.712C149.778 31.712 149.316 31.558 148.994 31.236C148.672 30.928 148.462 30.48 148.392 29.892H148.938C148.98 30.242 149.134 30.522 149.386 30.732C149.624 30.942 149.96 31.04 150.38 31.04C150.786 31.04 151.108 30.942 151.374 30.732C151.626 30.536 151.794 30.256 151.864 29.892H152.41C152.312 30.48 152.088 30.928 151.752 31.236C151.416 31.558 150.954 31.712 150.366 31.712ZM148.294 38.964L152.284 32.776H153.376V40H152.494V33.812L148.504 40H147.412V32.776H148.294V38.964ZM154.187 32.776H160.417V33.518H157.743V40H156.861V33.518H154.187V32.776ZM164.3 40.196C163.754 40.196 163.264 40.098 162.844 39.888C162.41 39.692 162.06 39.426 161.766 39.076C161.472 38.726 161.262 38.32 161.108 37.858C160.954 37.396 160.884 36.906 160.884 36.388C160.884 35.87 160.954 35.38 161.108 34.918C161.262 34.456 161.472 34.05 161.766 33.7C162.06 33.35 162.41 33.084 162.844 32.874C163.264 32.664 163.754 32.566 164.3 32.566C164.846 32.566 165.336 32.664 165.77 32.874C166.19 33.084 166.54 33.35 166.834 33.7C167.128 34.05 167.338 34.456 167.492 34.918C167.646 35.38 167.716 35.87 167.716 36.388C167.716 36.906 167.646 37.396 167.492 37.858C167.338 38.32 167.128 38.726 166.834 39.076C166.54 39.426 166.19 39.692 165.77 39.888C165.336 40.098 164.846 40.196 164.3 40.196ZM164.3 39.468C164.72 39.468 165.084 39.384 165.406 39.202C165.728 39.02 165.994 38.796 166.204 38.502C166.414 38.208 166.568 37.886 166.68 37.508C166.778 37.144 166.834 36.766 166.834 36.388C166.834 36.01 166.778 35.632 166.68 35.254C166.568 34.89 166.414 34.568 166.204 34.274C165.994 33.98 165.728 33.756 165.406 33.574C165.084 33.392 164.72 33.308 164.3 33.308C163.88 33.308 163.516 33.392 163.194 33.574C162.872 33.756 162.62 33.98 162.41 34.274C162.2 34.568 162.032 34.89 161.934 35.254C161.822 35.632 161.766 36.01 161.766 36.388C161.766 36.766 161.822 37.144 161.934 37.508C162.032 37.886 162.2 38.208 162.41 38.502C162.62 38.796 162.872 39.02 163.194 39.202C163.516 39.384 163.88 39.468 164.3 39.468ZM172.318 32.776C173.06 32.776 173.62 32.916 174.026 33.21C174.432 33.504 174.628 33.924 174.628 34.484C174.628 34.918 174.516 35.268 174.306 35.562C174.082 35.856 173.774 36.052 173.382 36.164V36.192C173.858 36.276 174.236 36.458 174.502 36.752C174.768 37.046 174.908 37.452 174.908 37.984C174.908 38.642 174.684 39.132 174.25 39.482C173.816 39.832 173.172 40 172.318 40H169.014V32.776H172.318ZM172.22 35.898C172.724 35.898 173.102 35.786 173.368 35.576C173.62 35.366 173.746 35.072 173.746 34.708C173.746 33.91 173.242 33.518 172.22 33.518H169.896V35.898H172.22ZM172.22 39.258C172.836 39.258 173.298 39.146 173.592 38.908C173.886 38.684 174.026 38.348 174.026 37.886C174.026 37.466 173.886 37.144 173.592 36.92C173.298 36.696 172.836 36.584 172.22 36.584H169.896V39.258H172.22Z" fill="#919191"/>
<defs>
<clipPath id="clip0_1812_39231">
<rect width="46" height="46" fill="white"/>
</clipPath>
</defs>
</svg>
